<svg width="211px" height="40px" viewBox="0 0 211 40" version="1.1" xmlns="http://www.w3.org/2000/svg" xmlns:xlink="http://www.w3.org/1999/xlink">
    <!-- Generator: Sketch 51.2 (57519) - http://www.bohemiancoding.com/sketch -->
    <title>Logo</title>
    <desc>Created with Sketch.</desc>
    <defs></defs>
    <g id="Page-1" stroke="none" stroke-width="1" fill="none" fill-rule="evenodd">
        <g id="Homepage" transform="translate(-30.000000, -30.000000)">
            <g id="Top">
                <g id="Header" transform="translate(30.000000, 30.000000)">
                    <g id="Logo">
                        <polygon id="Fill-1" fill="#FFFFFF" points="56.9554091 24.2424242 56.9554091 11.7760423 65.4837379 23.9432155 74.0130459 11.7760423 74.0130459 24.2424242 80.0344828 24.2424242 80.0344828 1.21212121 74.5643663 1.21212121 65.4837379 14.1687377 56.4021302 1.21212121 50.9310345 1.21212121 50.9310345 24.2424242"></polygon>
                        <polygon id="Fill-2" fill="#FFFFFF" points="35.6492646 9.55877865 29.7939828 1.21212121 23.3210635 1.21212121 23.0402299 1.56785801 32.6268669 15.238872 32.6268669 24.2424242 38.6677346 24.2424242 38.6677346 15.238872 48.5057471 1.21212121 41.5006187 1.21212121"></polygon>
                        <polygon id="Fill-3" fill="#FFFFFF" points="157.643678 1.21212121 156.297172 1.21212121 151.58046 1.21212121 151.58046 24.2424242 157.643678 24.2424242"></polygon>
                        <polygon id="Fill-4" fill="#FFFFFF" points="133.408752 6.26531918 133.408752 24.2424242 139.436075 24.2424242 139.436075 6.26531918 147.942529 6.26531918 147.942529 1.21212121 124.902299 1.21212121 124.902299 6.26531918"></polygon>
                        <polygon id="Fill-5" fill="#FFFFFF" points="175.385217 24.2424242 185.534483 1.21212121 179.241077 1.21212121 172.802203 15.8226702 166.364286 1.21212121 160.068966 1.21212121 170.219188 24.2424242"></polygon>
                        <polygon id="Fill-6" fill="#FFFFFF" points="189.172414 1.21212121 189.172414 24.2424242 211 24.2424242 211 19.1890124 195.235249 19.1890124 195.235249 15.2544659 205.641917 15.2544659 205.641917 10.2000795 195.235249 10.2000795 195.235249 6.26553303 211 6.26553303 211 1.21212121"></polygon>
                        <polygon id="Fill-7" fill="#FFFFFF" points="0 1.21212121 0 24.2424242 20.6149425 24.2424242 20.6149425 19.2016825 5.93339158 19.1890124 5.93339158 6.26553303 16.7458426 6.26553303 16.7458426 6.27722848 20.6149425 6.27722848 20.6149425 1.21212121"></polygon>
                        <g id="Group-16" transform="translate(2.425287, 0.000000)">
                            <path d="M5.46543356,33.582439 L5.46543356,32.9121951 L0.675976092,32.9121951 L0.675976092,33.582439 L2.69672552,33.582439 L2.69672552,39.9404878 L3.44274391,39.9404878 L3.44274391,33.582439 L5.46543356,33.582439 Z M23.2340589,39.9404878 L23.2340589,39.2702439 L19.6407531,39.2702439 L19.6407531,36.7317073 L22.7053462,36.7317073 L22.7053462,36.0614634 L19.6407531,36.0614634 L19.6407531,33.582439 L23.2340589,33.582439 L23.2340589,32.9121951 L18.8976451,32.9121951 L18.8976451,39.9404878 L23.2340589,39.9404878 Z M41.5158749,37.9082927 L40.7698566,37.9082927 C40.5835945,38.7668293 39.9646611,39.3297561 39.0905876,39.3297561 C38.629783,39.3297561 38.1864405,39.1521951 37.8837646,38.8360976 C37.4413922,38.3814634 37.3928864,37.897561 37.3928864,36.4263415 C37.3928864,34.955122 37.4413922,34.4712195 37.8837646,34.0165854 C38.1864405,33.7004878 38.629783,33.5229268 39.0905876,33.5229268 C39.9646611,33.5229268 40.5632221,34.0858537 40.7504543,34.9443902 L41.5158749,34.9443902 C41.280137,33.6214634 40.3478566,32.8526829 39.0905876,32.8526829 C38.4037462,32.8526829 37.7751117,33.1092683 37.3036359,33.582439 C36.6478382,34.2439024 36.6478382,34.9356098 36.6478382,36.4263415 C36.6478382,37.9180488 36.6478382,38.6087805 37.3036359,39.2702439 C37.7751117,39.7434146 38.4037462,40 39.0905876,40 C40.3371853,40 41.2898382,39.2312195 41.5158749,37.9082927 Z M60.1003669,39.9404878 L60.1003669,32.9121951 L59.3562887,32.9121951 L59.3562887,36.0614634 L56.0365554,36.0614634 L56.0365554,32.9121951 L55.290537,32.9121951 L55.290537,39.9404878 L56.0365554,39.9404878 L56.0365554,36.7317073 L59.3562887,36.7317073 L59.3562887,39.9404878 L60.1003669,39.9404878 Z M79.4124451,39.9404878 L79.4124451,32.9121951 L78.6673968,32.9121951 L78.6673968,38.5297561 L74.9547669,32.9121951 L74.2485232,32.9121951 L74.2485232,39.9404878 L74.9945416,39.9404878 L74.9945416,34.3043902 L78.7071715,39.9404878 L79.4124451,39.9404878 Z M98.1841692,36.4263415 C98.1841692,34.9356098 98.1841692,34.2439024 97.5264313,33.582439 C97.0559255,33.1092683 96.4360221,32.8526829 95.7394795,32.8526829 C95.042937,32.8526829 94.4240037,33.1092683 93.9525278,33.582439 C93.29576,34.2439024 93.29576,34.9356098 93.29576,36.4263415 C93.29576,37.9180488 93.29576,38.6087805 93.9525278,39.2702439 C94.4240037,39.7434146 95.042937,40 95.7394795,40 C96.4360221,40 97.0559255,39.7434146 97.5264313,39.2702439 C98.1841692,38.6087805 98.1841692,37.9180488 98.1841692,36.4263415 Z M97.4391209,36.4263415 C97.4391209,37.897561 97.3896451,38.3717073 96.9482428,38.8263415 C96.6426566,39.142439 96.2012543,39.3297561 95.7394795,39.3297561 C95.2786749,39.3297561 94.8363025,39.142439 94.5316864,38.8263415 C94.0902841,38.3717073 94.0408083,37.897561 94.0408083,36.4263415 C94.0408083,34.955122 94.0902841,34.4809756 94.5316864,34.0273171 C94.8363025,33.7112195 95.2786749,33.5229268 95.7394795,33.5229268 C96.2012543,33.5229268 96.6426566,33.7112195 96.9482428,34.0273171 C97.3896451,34.4809756 97.4391209,34.955122 97.4391209,36.4263415 Z M116.385466,39.9404878 L116.385466,39.2702439 L112.811562,39.2702439 L112.811562,32.9121951 L112.067484,32.9121951 L112.067484,39.9404878 L116.385466,39.9404878 Z M134.086183,36.4263415 C134.086183,34.9356098 134.086183,34.2439024 133.429415,33.582439 C132.957939,33.1092683 132.339006,32.8526829 131.641493,32.8526829 C130.944951,32.8526829 130.326017,33.1092683 129.854542,33.582439 C129.197774,34.2439024 129.197774,34.9356098 129.197774,36.4263415 C129.197774,37.9180488 129.197774,38.6087805 129.854542,39.2702439 C130.326017,39.7434146 130.944951,40 131.641493,40 C132.339006,40 132.957939,39.7434146 133.429415,39.2702439 C134.086183,38.6087805 134.086183,37.9180488 134.086183,36.4263415 Z M133.340165,36.4263415 C133.340165,37.897561 133.291659,38.3717073 132.850257,38.8263415 C132.54564,39.142439 132.103268,39.3297561 131.641493,39.3297561 C131.180689,39.3297561 130.738316,39.142439 130.43273,38.8263415 C129.991328,38.3717073 129.942822,37.897561 129.942822,36.4263415 C129.942822,34.955122 129.991328,34.4809756 130.43273,34.0273171 C130.738316,33.7112195 131.180689,33.5229268 131.641493,33.5229268 C132.103268,33.5229268 132.54564,33.7112195 132.850257,34.0273171 C133.291659,34.4809756 133.340165,34.955122 133.340165,36.4263415 Z M152.612468,37.3736585 L152.612468,36.2595122 L150.149346,36.2595122 L150.149346,36.92 L151.86645,36.92 L151.86645,37.4526829 C151.86645,37.9960976 151.758767,38.3814634 151.473553,38.7278049 C151.149535,39.1229268 150.659627,39.3297561 150.149346,39.3297561 C149.687571,39.3297561 149.245199,39.1521951 148.940583,38.8360976 C148.49724,38.3814634 148.449705,37.897561 148.449705,36.4273171 C148.449705,34.955122 148.49724,34.4809756 148.940583,34.0273171 C149.245199,33.7112195 149.687571,33.5229268 150.149346,33.5229268 C151.02245,33.5229268 151.649144,34.0663415 151.847047,34.955122 L152.592096,34.955122 C152.385461,33.7209756 151.483254,32.8526829 150.149346,32.8526829 C149.451834,32.8526829 148.8329,33.1092683 148.361424,33.582439 C147.704657,34.2439024 147.704657,34.9356098 147.704657,36.4273171 C147.704657,37.9170732 147.704657,38.6087805 148.361424,39.2702439 C148.8329,39.7434146 149.461535,40 150.149346,40 C150.865291,40 151.523029,39.7239024 152.012937,39.1912195 C152.445608,38.7278049 152.612468,38.1843902 152.612468,37.3736585 Z M166.47444,39.9404878 L167.219489,39.9404878 L167.219489,32.9121951 L166.47444,32.9121951 L166.47444,39.9404878 Z M185.707939,39.9404878 L185.707939,39.2702439 L182.114634,39.2702439 L182.114634,36.7317073 L185.177286,36.7317073 L185.177286,36.0614634 L182.114634,36.0614634 L182.114634,33.582439 L185.707939,33.582439 L185.707939,32.9121951 L181.369585,32.9121951 L181.369585,39.9404878 L185.707939,39.9404878 Z M203.594919,38.0068293 C203.594919,37.4243902 203.389254,36.9404878 203.007029,36.6146341 C202.713084,36.3570732 202.389066,36.2195122 201.731328,36.12 L200.963967,36.0009756 C200.600174,35.942439 200.237351,35.804878 200.021985,35.6165854 C199.80565,35.4292683 199.707668,35.1521951 199.707668,34.8068293 C199.707668,34.0273171 200.248022,33.5034146 201.181273,33.5034146 C201.91759,33.5034146 202.378394,33.7112195 202.811066,34.1053659 L203.291273,33.6214634 C202.693682,33.08 202.102882,32.8526829 201.209406,32.8526829 C199.825052,32.8526829 198.972321,33.6419512 198.972321,34.8370732 C198.972321,35.4 199.147912,35.8341463 199.502004,36.1502439 C199.80565,36.4165854 200.237351,36.5941463 200.788376,36.6829268 L201.603273,36.8117073 C202.113553,36.8907317 202.291084,36.9502439 202.516151,37.1473171 C202.742188,37.3453659 202.85084,37.6614634 202.85084,38.0263415 C202.85084,38.8458537 202.221236,39.3297561 201.200675,39.3297561 C200.414882,39.3297561 199.873558,39.142439 199.296339,38.56 L198.785089,39.0731707 C199.442827,39.7336585 200.129668,40 201.181273,40 C202.634505,40 203.594919,39.2409756 203.594919,38.0068293 Z" id="Fill-8" fill="#FFFFFF"></path>
                            <g id="Group-8" transform="translate(82.000000, 0.000000)">
                                <path d="M31.5404097,5.9262439 C27.922851,5.9262439 24.9804924,8.8862439 24.9804924,12.5233171 C24.9804924,16.1603902 27.922851,19.1194146 31.5404097,19.1194146 C35.1579683,19.1194146 38.1003269,16.1603902 38.1003269,12.5233171 C38.1003269,8.8862439 35.1579683,5.9262439 31.5404097,5.9262439" id="Fill-10" fill="#004E83"></path>
                                <path d="M31.5404097,21.4316098 C26.6558809,21.4316098 22.6822901,17.4355122 22.6822901,12.5233171 C22.6822901,7.61014634 26.6558809,3.61404878 31.5404097,3.61404878 C32.0147959,3.61404878 32.4775407,3.66282927 32.9325246,3.73502439 C30.8205844,1.78770732 28.0159821,0.588682927 24.9319867,0.588682927 C18.3875913,0.588682927 13.0645706,5.94282927 13.0645706,12.5233171 C13.0645706,19.1028293 18.3875913,24.4569756 24.9319867,24.4569756 C28.015012,24.4569756 30.8196143,23.2569756 32.9325246,21.3106341 C32.4775407,21.3828293 32.0147959,21.4316098 31.5404097,21.4316098" id="Fill-12" fill="#0093CE"></path>
                                <path d="M10.7653982,12.5230244 C10.7653982,7.85765854 13.0160648,3.72204878 16.4735545,1.12107317 L0.0378671264,1.12107317 L0.0378671264,23.924 L16.4725844,23.924 C13.0160648,21.324 10.7653982,17.1874146 10.7653982,12.5230244" id="Fill-14" fill="#82CFF4"></path>
                            </g>
                        </g>
                    </g>
                </g>
            </g>
        </g>
    </g>
</svg>